<?xml version="1.0" ?>
<!DOCTYPE svg  PUBLIC '-//W3C//DTD SVG 1.1//EN'  'http://www.w3.org/Graphics/SVG/1.1/DTD/svg11.dtd' [
	<!ENTITY stroke_color "#000">
	<!ENTITY fill_color "#eee">
]>
<svg height="55px" viewBox="0 0 55 55" width="55px" xmlns="http://www.w3.org/2000/svg" xmlns:xlink="http://www.w3.org/1999/xlink" stroke-linecap="round" stroke-linejoin="round" stroke-width="3.5" stroke="&stroke_color;" fill="&fill_color;">
  <g
     transform="matrix(1.0843615,0,0,1.0843615,-2.3199413,-3.0184148)"
     id="g3804">
    <g
       transform="matrix(0.02002748,0,0,-0.02002748,-120.39314,91.556231)"
       id="g27729"
       style="stroke:none">
      <path
         d="m 7745.7123,3650.2039 c -3.6036,-1.6517 -13.0632,-10.0601 -23.5738,-20.871 -19.9701,-20.7209 -29.5798,-27.778 -42.4928,-31.0814 -20.7209,-5.2553 -37.8381,-1.5015 -74.9255,16.9671 -21.4716,10.6608 -26.8771,12.9131 -33.0333,12.9131 -6.7568,0.1501 -7.8078,-0.3004 -10.8109,-4.8049 -4.3544,-6.3063 -5.8559,-18.0181 -4.5045,-35.4357 1.2012,-19.0692 5.1051,-34.9853 17.4175,-72.3729 12.0121,-36.637 15.1653,-49.55 15.4656,-63.6642 0.3003,-14.1142 -2.8528,-23.4236 -10.0601,-30.781 -8.2583,-8.1082 -15.4656,-10.3604 -52.7031,-16.5167 -57.3578,-9.6096 -94.4452,-20.5707 -129.7308,-38.1384 -69.9705,-34.9852 -122.6736,-97.298 -155.5567,-184.0855 -8.4085,-22.2224 -14.5647,-42.7931 -27.9282,-93.5443 -17.4175,-66.2167 -18.919,-69.52 -45.646,-97.4482 -34.6849,-36.3366 -60.9614,-53.3037 -121.7727,-78.5291 -31.2315,-12.913 -44.7451,-20.4206 -54.6551,-30.0303 -13.3634,-12.913 -18.4686,-25.3755 -20.4205,-48.7991 -2.2523,-28.3786 13.6637,-51.5019 47.4478,-68.9195 7.0571,-3.6036 17.1172,-7.8079 22.5227,-9.1592 13.964,-3.6037 25.5257,-1.5015 25.5257,4.6547 0,1.2012 -7.0571,9.6096 -15.6157,18.7689 -21.772,22.9731 -27.0273,35.1354 -21.3215,50.1505 4.6547,11.862 25.2254,28.0783 49.7001,39.0394 11.7118,5.2553 80.6312,32.7329 96.0968,38.4387 38.8892,14.2644 55.8563,13.6638 75.8264,-3.1532 l 7.2073,-6.006 146.848,0.3003 146.9981,0.4504 -0.4505,11.2614 c -1.3513,29.2795 -9.009,35.1354 -48.7991,37.3876 -11.2614,0.6007 -21.0212,1.5016 -21.3215,1.952 -1.3514,1.2012 4.5045,15.0151 14.2644,34.2345 17.4175,34.0844 41.2916,66.517 54.9553,74.4751 6.1562,3.6036 7.8079,3.9039 19.0693,3.3033 14.1142,-0.7508 22.0722,-4.0541 29.2795,-12.3124 6.006,-6.907 7.6577,-12.6127 10.0601,-35.5859 1.5015,-13.964 3.1532,-21.9221 6.6067,-30.6308 17.1172,-44.2947 68.1687,-93.244 96.6974,-92.4933 9.7598,0.1502 14.1142,3.1532 19.5197,13.6638 4.8048,9.4595 5.4054,20.1203 1.6516,27.4777 -1.3513,2.7027 -9.1592,11.7118 -17.1172,20.1203 -35.5859,36.9372 -46.5469,66.2167 -46.5469,124.4754 0,59.1596 11.5616,102.5534 36.9372,138.2894 3.6036,5.1051 15.7659,19.2193 27.0272,31.5318 35.8862,39.1894 42.9433,54.3547 42.9433,92.0427 -0.1501,21.772 -1.6516,33.3336 -7.958,56.7572 -10.6607,40.3907 -7.0571,59.9104 15.4656,85.1358 15.3154,17.2674 16.6668,23.2735 11.2613,51.9524 -6.006,31.3816 -8.2583,45.1955 -11.4115,72.6732 -4.0541,34.5348 -7.0571,42.1925 -17.7178,46.6971 -6.6067,2.8528 -13.5136,2.5525 -20.7209,-0.7508 z"
         id="path27731"
         style="stroke:none" />
    </g>
    <g
       transform="translate(-1.3739408,0)"
       id="g3795">
      <path
         d="M 19.026393,6.638581 C 19.342424,5.663191 19.936134,4.9894 20.599914,4.9894 V 4.16689 c -1.14205,0 -2.09274,1.061451 -2.4661,2.590772 -6.443063,-2.012532 -4.701192,4.965741 -3.608152,6.837483 0.71578,1.2259 0.19864,3.599831 2.848821,3.571491 0.39897,-0.0043 0.730211,0.0338 1.00061,-0.34996 0.270271,0.38376 0.601511,0.34567 1.000481,0.34996 2.650051,0.02847 2.132911,-2.345591 2.848821,-3.571491 1.06912,-1.831051 2.759121,-8.548025 -3.198002,-6.956564 z"
         id="path15627-0"
         style="fill:&stroke_color;;fill-opacity:1;stroke:none" />
      <path
         d="M 40.024275,6.638581 C 40.340306,5.663191 40.934016,4.9894 41.597796,4.9894 V 4.16689 c -1.14205,0 -2.09274,1.061451 -2.4661,2.590772 -6.443063,-2.012532 -4.701192,4.965741 -3.608152,6.837483 0.71578,1.2259 0.19864,3.599831 2.848821,3.571491 0.39897,-0.0043 0.730211,0.0338 1.00061,-0.34996 0.270271,0.38376 0.601511,0.34567 1.000481,0.34996 2.650051,0.02847 2.132911,-2.345591 2.848821,-3.571491 1.06912,-1.831051 2.759121,-8.548025 -3.198002,-6.956564 z"
         id="path15627-0-9"
         style="fill:&stroke_color;;fill-opacity:1;stroke:none" />
    </g>
    <g
       transform="translate(-0.522607,0)"
       id="g3799">
      <path
         d="m 14.269344,52.121377 c -3.995652,0 -7.246377,-3.250725 -7.246377,-7.246377 0,-3.995652 3.250725,-7.246377 7.246377,-7.246377 0.695797,0 1.387681,0.100145 2.056232,0.297681 l 1.741884,0.514783 -1.741884,0.514783 c -2.602899,0.76913 -4.42087,3.203188 -4.42087,5.91913 0,2.715797 1.817971,5.14971 4.420725,5.918841 l 1.741304,0.514347 -1.741159,0.515218 c -0.668696,0.197681 -1.360435,0.297971 -2.056232,0.297971 l 0,0 z m 0,-13.419276 c -3.403768,0 -6.172754,2.769276 -6.172754,6.172899 0,3.403623 2.768986,6.172899 6.172754,6.172899 0.0062,0 0.01246,0 0.01884,0 -2.099711,-1.298261 -3.456957,-3.630435 -3.456957,-6.172899 0,-2.542319 1.357246,-4.874348 3.456667,-6.172899 -0.0064,0 -0.01246,0 -0.01855,0 l 0,0 z"
         id="path5631-7"
         style="fill:&stroke_color;;fill-opacity:1;stroke:none" />
      <path
         d="m 29.746737,52.121377 c -3.995651,0 -7.246377,-3.250725 -7.246377,-7.246377 0,-3.995652 3.250726,-7.246377 7.246377,-7.246377 0.695798,0 1.387681,0.100145 2.056232,0.297681 l 1.741885,0.514783 -1.741885,0.514783 C 29.200071,39.725 27.3821,42.159058 27.3821,44.875 c 0,2.715797 1.817971,5.14971 4.420724,5.918841 l 1.741304,0.514347 -1.741159,0.515218 c -0.668696,0.197681 -1.360434,0.297971 -2.056231,0.297971 l 0,0 z m 0,-13.419276 c -3.403767,0 -6.172754,2.769276 -6.172754,6.172899 0,3.403623 2.768987,6.172899 6.172754,6.172899 0.0062,0 0.01246,0 0.01884,0 C 27.665866,49.749638 26.30862,47.417464 26.30862,44.875 c 0,-2.542319 1.357246,-4.874348 3.456667,-6.172899 -0.0064,0 -0.01246,0 -0.01855,0 l 0,0 z"
         id="path5631-7-0"
         style="fill:&stroke_color;;fill-opacity:1;stroke:none" />
      <path
         d="m 45.22413,52.121377 c -3.995651,0 -7.246377,-3.250725 -7.246377,-7.246377 0,-3.995652 3.250726,-7.246377 7.246377,-7.246377 0.695797,0 1.387682,0.100145 2.056232,0.297681 l 1.741885,0.514783 -1.741885,0.514783 c -2.602898,0.76913 -4.420869,3.203188 -4.420869,5.91913 0,2.715797 1.817971,5.14971 4.420724,5.918841 l 1.741304,0.514347 -1.741159,0.515218 c -0.668696,0.197681 -1.360435,0.297971 -2.056232,0.297971 l 0,0 z m 0,-13.419276 c -3.403767,0 -6.172754,2.769276 -6.172754,6.172899 0,3.403623 2.768987,6.172899 6.172754,6.172899 0.0062,0 0.01246,0 0.01884,0 -2.099711,-1.298261 -3.456957,-3.630435 -3.456957,-6.172899 0,-2.542319 1.357246,-4.874348 3.456667,-6.172899 -0.0064,0 -0.01246,0 -0.01855,0 l 0,0 z"
         id="path5631-7-6"
         style="fill:&stroke_color;;fill-opacity:1;stroke:none" />
    </g>
  </g>
</svg>
